<svg id="Layer_1" xmlns="http://www.w3.org/2000/svg" viewBox="0 0 557.7 595.3"><style>.st0{fill:none;stroke:#d8eaf3;stroke-width:2;stroke-miterlimit:10}</style><path class="st0" d="M246.7 560.6h-55.2c-2.7 0-5-2.2-5-5v-65.7c0-1.3-.5-2.6-1.5-3.5l-83.6-83.6c-.9-.9-2.2-1.5-3.5-1.5H35.8c-2.1 0-4-1.3-4.7-3.3L17 357.8c-.9-2.6.4-5.4 3-6.3l19.7-7.2c2-.7 3.3-2.6 3.3-4.7v-30.8c0-2.7 2.2-5 5-5h9.3c2.1 0 4.1-1.4 4.7-3.4l9.5-28.9c1.1-3.2-1.3-6.5-4.7-6.5H41.1c-3.6 0-6.1-3.8-4.5-7.1l24-51.5c1.5-3.3-.9-7.1-4.5-7.1-2.7 0-5-2.2-5-5v-58.7c0-2.2 1.4-4.1 3.5-4.7l52.1-16.6c2.6-.8 4-3.6 3.3-6.2L90.1 42.7c-1-3.2 1.4-6.4 4.8-6.4h194.3c2.2 0 4.1 1.5 4.8 3.6l18.7 63.3c.8 2.7-.8 5.5-3.5 6.2l-3.8 1c-2.8.7-4.3 3.6-3.4 6.3l29.5 91.3c.7 2.2 2.8 3.6 5.1 3.4l48.4-3.3c1.5-.1 2.8-.8 3.7-2l14.6-20c2.4-3.3 7.6-2.4 8.8 1.5l17.4 57.7c.7 2.4 3.1 3.9 5.5 3.5l76.2-11.5c2.5-.4 4.9 1.2 5.5 3.6l6.2 22.4c.9 3.2-1.5 6.3-4.8 6.3h-6c-2.7 0-5 2.2-5 5v8.2c0 2.7 2.2 5 5 5h7.6c2.7 0 5 2.2 5 5v47.1c0 1.2-.4 2.3-1.2 3.2l-21.9 25.6c-2.2 2.6-1.2 6.6 2 7.9l30 11.6c1.6.6 2.7 2 3.1 3.7l4.5 22.3c.2 1 .1 2.1-.4 3.1l-14 29.7c-.9 1.9-.5 4.2 1 5.6l3.5 3.5c2.3 2.3 1.8 6.3-1.1 7.9l-3.9 2.2c-1.9 1.1-4.4.7-5.9-.8l-16.9-16.9c-1.3-1.3-3.3-1.8-5-1.2l-99.8 31.9c-.8.3-1.5.7-2.1 1.3L312.3 568c-1.7 1.7-4.3 2-6.3.7l-34.2-22.6a4.96 4.96 0 0 0-5.9.3l-16 13.1c-.9.7-2 1.1-3.2 1.1z"/></svg>